<svg width="1919" height="1080" viewBox="0 0 1919 1080" fill="none" xmlns="http://www.w3.org/2000/svg">
<mask id="mask0_523_50" style="mask-type:alpha" maskUnits="userSpaceOnUse" x="0" y="0" width="1920" height="1080">
<rect width="1920" height="1080" fill="#C4C4C4"/>
</mask>
<g mask="url(#mask0_523_50)">
<path d="M1400.14 119C1327.34 103 1320.8 33 1326.64 0H1919.64V367C1858.8 388.167 1727.04 397.6 1686.64 266C1636.14 101.5 1491.14 139 1400.14 119Z" fill="#E76F51"/>
<path d="M1445.14 65C1372.34 49 1365.8 -21 1371.64 -54H1964.64V313C1903.8 334.167 1772.04 343.6 1731.64 212C1681.14 47.5 1536.14 85 1445.14 65Z" fill="#E8B2A5"/>
<path d="M106.563 430.273C41.9269 325.142 -123.667 354.016 -198.385 381.595L24.3746 1310.76L879.693 1105.71C906.172 998.563 878.659 786.828 556.78 797.055C154.431 809.838 187.359 561.685 106.563 430.273Z" fill="#EBD9AF"/>
<path d="M86.3817 495.5C10.368 398.278 -150.946 445.532 -222.101 481.313L103.412 1379.65L930.353 1080.01C944.654 970.575 893.58 763.258 574.876 809.502C176.496 867.307 181.399 617.028 86.3817 495.5Z" fill="#DEC076"/>
<circle cx="393" cy="-8" r="174.5" stroke="#2A9D8F"/>
<circle cx="393" cy="-8" r="100" fill="#2A9D8F"/>
<path d="M1528 1244V1016.48C1528 913.358 1693 915.659 1693 1016.48C1693 1147.55 1693 1222.77 1693 1244" stroke="#264653" stroke-width="18"/>
<path d="M1542 1175V1010.35C1542 935.719 1679 937.385 1679 1010.35C1679 1105.2 1679 1159.64 1679 1175" stroke="#5A7F8E" stroke-width="15"/>
<path d="M1547 1168V1016.82C1547 948.297 1674 949.826 1674 1016.82C1674 1103.91 1674 1153.89 1674 1168" stroke="#8AA6B1" stroke-width="10"/>
<path d="M1555 1159V1018.3C1555 954.524 1666 955.947 1666 1018.3C1666 1099.35 1666 1145.87 1666 1159" stroke="#CBD7DC" stroke-width="7"/>
</g>
</svg>
