<svg width="320" height="568" viewBox="0 0 320 568" fill="none" xmlns="http://www.w3.org/2000/svg">
<mask id="mask0_524_88" style="mask-type:alpha" maskUnits="userSpaceOnUse" x="0" y="0" width="320" height="568">
<rect width="320" height="568" fill="#C4C4C4"/>
</mask>
<g mask="url(#mask0_524_88)">
<path d="M138.985 46.0374C109.933 39.6525 107.326 11.7183 109.654 -1.45074H346.297V145.004C322.02 153.451 269.438 157.216 253.316 104.699C233.163 39.0539 175.299 54.0187 138.985 46.0374Z" fill="#E76F51"/>
<path d="M156.942 24.4882C127.891 18.1032 125.283 -9.83101 127.611 -23H364.254V123.455C339.978 131.902 287.395 135.666 271.273 83.1501C251.12 17.5046 193.257 32.4694 156.942 24.4882Z" fill="#E8B2A5"/>
<path d="M29.4981 413.508C13.9063 388.148 -26.0389 395.113 -44.0625 401.765L9.6723 625.903L215.995 576.439C222.383 550.593 215.746 499.517 138.101 501.984C41.045 505.068 48.9879 445.207 29.4981 413.508Z" fill="#EBD9AF"/>
<path d="M24.6302 429.242C6.29387 405.79 -32.6188 417.189 -49.7831 425.82L28.7382 642.521L228.216 570.241C231.666 543.841 219.345 493.832 142.467 504.987C46.3679 518.931 47.5505 458.557 24.6302 429.242Z" fill="#DEC076"/>
<circle cx="3.99207" cy="29.5123" r="63.9877" stroke="#2A9D8F"/>
<circle cx="3.99317" cy="29.5123" r="36.8501" fill="#2A9D8F"/>
<path d="M268 587.059V543.607C268 523.912 299.512 524.351 299.512 543.607C299.512 568.638 299.512 583.005 299.512 587.059" stroke="#264653" stroke-width="18"/>
<path d="M270.674 573.881V542.436C270.674 528.182 296.839 528.5 296.839 542.436C296.839 560.55 296.839 570.947 296.839 573.881" stroke="#5A7F8E" stroke-width="15"/>
<path d="M271.629 572.544V543.672C271.629 530.585 295.884 530.877 295.884 543.672C295.884 560.304 295.884 569.85 295.884 572.544" stroke="#8AA6B1" stroke-width="10"/>
<path d="M273.156 570.826V543.954C273.156 531.774 294.355 532.046 294.355 543.954C294.355 559.433 294.355 568.318 294.355 570.826" stroke="#CBD7DC" stroke-width="7"/>
</g>
</svg>
