<svg width="36" height="35" viewBox="0 0 36 35" fill="none" xmlns="http://www.w3.org/2000/svg">
<path d="M32.9758 0H3.02422C1.63007 0 0.5 1.13007 0.5 2.52422V32.4758C0.5 33.8699 1.63007 35 3.02422 35H32.9758C34.3699 35 35.5 33.8699 35.5 32.4758V2.52422C35.5 1.13007 34.3699 0 32.9758 0V0ZM12.9147 26.4551H8.65266V13.6326H12.9147V26.4551ZM10.7838 11.8817H10.756C9.32584 11.8817 8.40085 10.8972 8.40085 9.66671C8.40085 8.40847 9.35414 7.45117 10.8121 7.45117C12.2701 7.45117 13.1673 8.40847 13.1951 9.66671C13.1951 10.8972 12.2701 11.8817 10.7838 11.8817ZM28.2827 26.4551H24.0212V19.5954C24.0212 17.8714 23.4041 16.6957 21.862 16.6957C20.6847 16.6957 19.9835 17.4888 19.6753 18.2544C19.5627 18.5283 19.5351 18.9112 19.5351 19.2944V26.4551H15.2734C15.2734 26.4551 15.3292 14.8356 15.2734 13.6326H19.5351V15.4482C20.1015 14.5744 21.1149 13.3317 23.3761 13.3317C26.1802 13.3317 28.2827 15.1643 28.2827 19.1027V26.4551Z" fill="#EEEEEE"/>
</svg>
