<svg width="36" height="35" viewBox="0 0 36 35" fill="none" xmlns="http://www.w3.org/2000/svg">
<path d="M18 0C8.33125 0 0.5 8.03466 0.5 17.9441C0.5 25.8737 5.51375 32.5982 12.4656 34.969C13.3406 35.138 13.6615 34.5825 13.6615 34.1062C13.6615 33.6801 13.6469 32.551 13.6396 31.0552C8.77167 32.1371 7.745 28.6478 7.745 28.6478C6.94875 26.5768 5.79812 26.0229 5.79812 26.0229C4.21292 24.9105 5.92063 24.9333 5.92063 24.9333C7.67792 25.0581 8.60104 26.7822 8.60104 26.7822C10.1615 29.5259 12.6975 28.733 13.6979 28.275C13.8554 27.1139 14.306 26.3242 14.8063 25.8753C10.9198 25.4264 6.835 23.8833 6.835 17.0082C6.835 15.0498 7.51313 13.4489 8.63604 12.1935C8.43917 11.74 7.84854 9.9155 8.78917 7.44424C8.78917 7.44424 10.2548 6.96337 13.6017 9.28399C15.0017 8.8853 16.4892 8.68748 17.9767 8.67835C19.4642 8.68748 20.9517 8.8853 22.3517 9.28399C25.6767 6.96337 27.1423 7.44424 27.1423 7.44424C28.0829 9.9155 27.4923 11.74 27.3173 12.1935C28.4329 13.4489 29.111 15.0498 29.111 17.0082C29.111 23.9016 25.0204 25.4187 21.1267 25.86C21.7392 26.3987 22.3079 27.4989 22.3079 29.1804C22.3079 31.5817 22.286 33.5112 22.286 34.0941C22.286 34.5643 22.5923 35.1258 23.4892 34.9462C30.4906 32.5906 35.5 25.8616 35.5 17.9441C35.5 8.03466 27.6644 0 18 0V0Z" fill="#EEEEEE"/>
</svg>
