<svg width="58" height="44" viewBox="0 0 58 44" fill="none" xmlns="http://www.w3.org/2000/svg">
<path d="M0.22 22.06C0.22 17.98 1.16 14.32 3.04 11.08C4.96 7.84 7.54 5.32 10.78 3.52C14.06 1.68 17.64 0.759997 21.52 0.759997C25.96 0.759997 29.9 1.86 33.34 4.06C36.82 6.22 39.34 9.3 40.9 13.3H32.68C31.6 11.1 30.1 9.46 28.18 8.38C26.26 7.3 24.04 6.76 21.52 6.76C18.76 6.76 16.3 7.38 14.14 8.62C11.98 9.86 10.28 11.64 9.04 13.96C7.84 16.28 7.24 18.98 7.24 22.06C7.24 25.14 7.84 27.84 9.04 30.16C10.28 32.48 11.98 34.28 14.14 35.56C16.3 36.8 18.76 37.42 21.52 37.42C24.04 37.42 26.26 36.88 28.18 35.8C30.1 34.72 31.6 33.08 32.68 30.88H40.9C39.34 34.88 36.82 37.96 33.34 40.12C29.9 42.28 25.96 43.36 21.52 43.36C17.6 43.36 14.02 42.46 10.78 40.66C7.54 38.82 4.96 36.28 3.04 33.04C1.16 29.8 0.22 26.14 0.22 22.06ZM53.6663 43.42C52.4263 43.42 51.3863 43 50.5463 42.16C49.7063 41.32 49.2863 40.28 49.2863 39.04C49.2863 37.8 49.7063 36.76 50.5463 35.92C51.3863 35.08 52.4263 34.66 53.6663 34.66C54.8663 34.66 55.8863 35.08 56.7263 35.92C57.5663 36.76 57.9863 37.8 57.9863 39.04C57.9863 40.28 57.5663 41.32 56.7263 42.16C55.8863 43 54.8663 43.42 53.6663 43.42Z" fill="#EEEEEE"/>
</svg>
